Serifas_Black.ufo
<glyph name="E" format="2">
  <advance width="653"/>
  <unicode hex="0045"/>
  <guideline x="289" y="557" angle="0" identifier="o6o4KCBvMd"/>
  <outline>
    <contour>
      <point x="257" y="301" type="curve"/>
      <point x="257" y="453" type="line"/>
      <point x="343" y="450"/>
      <point x="426" y="444"/>
      <point x="510" y="427" type="curve"/>
      <point x="510" y="330" type="line"/>
      <point x="426" y="313"/>
      <point x="340" y="304"/>
    </contour>
    <contour>
      <point x="13" y="750" type="line"/>
      <point x="644" y="750" type="line"/>
      <point x="644" y="493" type="line"/>
      <point x="540" y="597"/>
      <point x="372" y="587"/>
      <point x="276" y="577" type="curve"/>
      <point x="307" y="682" type="line"/>
      <point x="307" y="97" type="line"/>
      <point x="254" y="169" type="line"/>
      <point x="585" y="169" type="line"/>
      <point x="491" y="94" type="line"/>
      <point x="549" y="277" type="line"/>
      <point x="633" y="277" type="line"/>
      <point x="633" y="0" type="line"/>
      <point x="44" y="0" type="line"/>
      <point x="78" y="51"/>
      <point x="109" y="121"/>
      <point x="109" y="218" type="curve" smooth="yes"/>
      <point x="109" y="629" type="line"/>
      <point x="153" y="557" type="line"/>
      <point x="61" y="562" type="line"/>
    </contour>
  </outline>
</glyph>
<glyph name="F" format="2">
  <advance width="653"/>
  <unicode hex="0046"/>
  <outline>
    <contour>
      <point x="217" y="297" type="curve"/>
      <point x="217" y="427" type="line"/>
      <point x="303" y="424"/>
      <point x="419" y="418"/>
      <point x="503" y="401" type="curve"/>
      <point x="503" y="326" type="line"/>
      <point x="419" y="309"/>
      <point x="300" y="300"/>
    </contour>
    <contour>
      <point x="267" y="137" type="line"/>
      <point x="206" y="185" type="line"/>
      <point x="313" y="185" type="line"/>
      <point x="368" y="-2" type="line"/>
      <point x="38" y="-2" type="line"/>
      <point x="71" y="49"/>
      <point x="103" y="116"/>
      <point x="103" y="213" type="curve" smooth="yes"/>
      <point x="103" y="218" type="line"/>
      <point x="103" y="629" type="line"/>
      <point x="147" y="583" type="line"/>
      <point x="55" y="588" type="line"/>
      <point x="7" y="750" type="line"/>
      <point x="604" y="750" type="line"/>
      <point x="604" y="519" type="line"/>
      <point x="500" y="623"/>
      <point x="332" y="613"/>
      <point x="236" y="603" type="curve"/>
      <point x="267" y="682" type="line"/>
    </contour>
  </outline>
</glyph>
<glyph name="H" format="2">
  <advance width="903"/>
  <unicode hex="0048"/>
  <outline>
    <contour>
      <point x="282" y="296" type="line"/>
      <point x="282" y="458" type="line"/>
      <point x="656" y="458" type="line"/>
      <point x="656" y="296" type="line"/>
    </contour>
    <contour>
      <point x="849" y="0" type="line"/>
      <point x="521" y="0" type="line"/>
      <point x="554" y="51"/>
      <point x="586" y="118"/>
      <point x="586" y="215" type="curve" smooth="yes"/>
      <point x="586" y="750" type="line"/>
      <point x="849" y="750" type="line"/>
      <point x="849" y="557" type="line"/>
      <point x="741" y="557" type="line"/>
      <point x="786" y="602" type="line"/>
      <point x="786" y="143" type="line"/>
      <point x="729" y="235" type="line"/>
      <point x="849" y="193" type="line"/>
    </contour>
    <contour>
      <point x="94" y="750" type="line"/>
      <point x="422" y="750" type="line"/>
      <point x="389" y="699"/>
      <point x="357" y="632"/>
      <point x="357" y="535" type="curve" smooth="yes"/>
      <point x="357" y="0" type="line"/>
      <point x="94" y="0" type="line"/>
      <point x="94" y="193" type="line"/>
      <point x="202" y="235" type="line"/>
      <point x="157" y="143" type="line"/>
      <point x="157" y="607" type="line"/>
      <point x="214" y="557" type="line"/>
      <point x="94" y="557" type="line"/>
    </contour>
  </outline>
</glyph>
<glyph name="I" format="2">
	<advance width="466"/>
	<unicode hex="0049"/>
	<outline>
		<contour>
			<point x="45" y="0" type="line"/>
			<point x="45" y="163" type="line"/>
			<point x="176" y="200" type="line"/>
			<point x="133" y="172" type="line"/>
			<point x="133" y="602" type="line"/>
			<point x="178" y="587" type="line"/>
			<point x="45" y="587" type="line"/>
			<point x="45" y="750" type="line"/>
			<point x="421" y="750" type="line"/>
			<point x="421" y="587" type="line"/>
			<point x="288" y="587" type="line"/>
			<point x="333" y="602" type="line"/>
			<point x="333" y="172" type="line"/>
			<point x="290" y="200" type="line"/>
			<point x="421" y="163" type="line"/>
			<point x="421" y="0" type="line"/>
		</contour>
	</outline>
</glyph>
<glyph name="L" format="2">
  <advance width="653"/>
  <unicode hex="004C"/>
  <outline>
    <contour>
      <point x="98" y="629" type="curve"/>
      <point x="139" y="583" type="line"/>
      <point x="47" y="588" type="line"/>
      <point x="-1" y="750" type="line"/>
      <point x="332" y="750" type="line"/>
      <point x="279" y="679"/>
      <point x="261" y="647"/>
      <point x="261" y="541" type="curve" smooth="yes"/>
      <point x="261" y="536" type="line"/>
      <point x="262" y="70" type="line"/>
      <point x="209" y="142" type="line"/>
      <point x="540" y="142" type="line"/>
      <point x="446" y="67" type="line"/>
      <point x="504" y="250" type="line"/>
      <point x="588" y="250" type="line"/>
      <point x="588" y="0" type="line"/>
      <point x="33" y="0" type="line"/>
      <point x="67" y="51"/>
      <point x="98" y="121"/>
      <point x="98" y="218" type="curve" smooth="yes"/>
      <point x="98" y="218"/>
      <point x="98" y="629"/>
    </contour>
  </outline>
</glyph>
<glyph name="N" format="2">
  <advance width="806"/>
  <unicode hex="004E"/>
  <outline>
    <contour>
      <point x="28.2945" y="750" type="line"/>
      <point x="346.295" y="750" type="line"/>
      <point x="559.295" y="256.456" type="line"/>
      <point x="579.295" y="256.456" type="line"/>
      <point x="579.295" y="592.26" type="line" smooth="yes"/>
      <point x="579.295" y="658.363"/>
      <point x="511.295" y="749.032"/>
      <point x="511.295" y="749.032" type="curve"/>
      <point x="794.295" y="749.032" type="line"/>
      <point x="731.295" y="592.26" type="line"/>
      <point x="731.295" y="592.26"/>
      <point x="731.295" y="230.986"/>
      <point x="731.295" y="0.0071" type="curve"/>
      <point x="559.295" y="0.0071" type="line"/>
      <point x="292.295" y="576.195" type="line"/>
      <point x="271.295" y="576.195" type="line"/>
      <point x="271.295" y="432.991"/>
      <point x="271.105" y="132.924"/>
      <point x="271.105" y="132.924" type="curve"/>
      <point x="271.105" y="132.924"/>
      <point x="227.924" y="186.721"/>
      <point x="227.924" y="186.721" type="curve"/>
      <point x="326.295" y="186.909" type="line"/>
      <point x="382.295" y="0.0071" type="line"/>
      <point x="50.2945" y="0.0071" type="line"/>
      <point x="119.295" y="108.393" type="line"/>
      <point x="119.295" y="615.674" type="line"/>
      <point x="155.726" y="574.711" type="line"/>
      <point x="73.2945" y="574.711" type="line"/>
    </contour>
  </outline>
</glyph>
<glyph name="O" format="2">
  <advance width="762"/>
  <unicode hex="004F"/>
  <outline>
    <contour>
      <point x="381" y="768" type="curve"/>
      <point x="173" y="768"/>
      <point x="33" y="627"/>
      <point x="33" y="368" type="curve" smooth="yes"/>
      <point x="33" y="109"/>
      <point x="173" y="-32"/>
      <point x="381" y="-32" type="curve"/>
      <point x="589" y="-32"/>
      <point x="729" y="109"/>
      <point x="729" y="368" type="curve" smooth="yes"/>
      <point x="729" y="627"/>
      <point x="589" y="768"/>
    </contour>
    <contour>
      <point x="380" y="609" type="curve"/>
      <point x="490" y="609"/>
      <point x="561" y="523"/>
      <point x="561" y="367" type="curve" smooth="yes"/>
      <point x="561" y="214"/>
      <point x="490" y="128"/>
      <point x="380" y="128" type="curve"/>
      <point x="272" y="128"/>
      <point x="201" y="214"/>
      <point x="201" y="367" type="curve" smooth="yes"/>
      <point x="201" y="523"/>
      <point x="272" y="609"/>
    </contour>
  </outline>
</glyph>
<glyph name="P" format="2">
	<advance width="653"/>
	<unicode hex="0050"/>
	<guideline x="436" y="308" angle="0"/>
	<outline>
		<contour>
			<point x="268" y="136" type="line"/>
			<point x="206" y="185" type="line"/>
			<point x="313" y="185" type="line"/>
			<point x="368" y="-2" type="line"/>
			<point x="38" y="-2" type="line"/>
			<point x="71" y="49"/>
			<point x="103" y="116"/>
			<point x="103" y="213" type="curve" smooth="yes"/>
			<point x="103" y="218" type="line"/>
			<point x="103" y="629" type="line"/>
			<point x="147" y="583" type="line"/>
			<point x="55" y="588" type="line"/>
			<point x="7" y="750" type="line"/>
			<point x="270" y="750" type="line"/>
			<point x="268" y="682" type="line"/>
		</contour>
		<contour>
			<point x="492" y="410" type="curve"/>
			<point x="494" y="360"/>
			<point x="465" y="350"/>
			<point x="409" y="335" type="curve"/>
			<point x="455" y="416"/>
			<point x="470" y="532"/>
			<point x="423" y="636" type="curve"/>
			<point x="423" y="636"/>
			<point x="464" y="615"/>
			<point x="464" y="615" type="curve"/>
			<point x="374" y="624"/>
			<point x="286" y="624"/>
			<point x="205" y="587" type="curve"/>
			<point x="176" y="750" type="line"/>
			<point x="258" y="750"/>
			<point x="257" y="750"/>
			<point x="367" y="750" type="curve" smooth="yes"/>
			<point x="516" y="750"/>
			<point x="609" y="702"/>
			<point x="609" y="510" type="curve" smooth="yes"/>
			<point x="609" y="328"/>
			<point x="539" y="280"/>
			<point x="426" y="280" type="curve"/>
			<point x="313" y="280"/>
			<point x="254" y="284"/>
			<point x="254" y="406" type="curve"/>
			<point x="290" y="397" type="line"/>
			<point x="187" y="397" type="line"/>
			<point x="187" y="397"/>
			<point x="207" y="489"/>
			<point x="207" y="489" type="curve"/>
			<point x="265" y="417"/>
			<point x="389" y="402"/>
		</contour>
		<contour>
			<point x="205" y="727" type="move"/>
		</contour>
	</outline>
</glyph>
<glyph name="Q" format="2">
  <advance width="770"/>
  <unicode hex="0051"/>
  <outline>
    <contour>
      <point x="1158" y="20" type="line"/>
      <point x="1023" y="73"/>
      <point x="932" y="203"/>
      <point x="932" y="372" type="curve"/>
      <point x="932" y="594"/>
      <point x="1067" y="760"/>
      <point x="1299" y="760" type="curve"/>
      <point x="1504" y="760"/>
      <point x="1665" y="602"/>
      <point x="1665" y="379" type="curve"/>
      <point x="1665" y="235"/>
      <point x="1608" y="114"/>
      <point x="1503" y="48" type="curve"/>
      <point x="1407" y="48" type="line"/>
      <point x="1437" y="78" type="line"/>
      <point x="1437" y="-19" type="line"/>
      <point x="1407" y="11" type="line"/>
      <point x="1498" y="11" type="line"/>
      <point x="1613" y="-36" type="line"/>
      <point x="1613" y="-147" type="line"/>
      <point x="1102" y="-148" type="line"/>
      <point x="1101" y="-85" type="line"/>
      <point x="1196" y="24" type="line"/>
      <point x="1333" y="122"/>
      <point x="1483" y="273"/>
      <point x="1554" y="411" type="curve"/>
      <point x="1554" y="327" type="line"/>
      <point x="1480" y="491"/>
      <point x="1393" y="583"/>
      <point x="1254" y="686" type="curve"/>
      <point x="1334" y="686" type="line"/>
      <point x="1202" y="604"/>
      <point x="1098" y="487"/>
      <point x="1020" y="332" type="curve"/>
      <point x="1020" y="423" type="line"/>
      <point x="1067" y="322"/>
      <point x="1163" y="211"/>
      <point x="1258" y="127" type="curve"/>
      <point x="1262" y="122" type="line"/>
    </contour>
    <contour>
      <point x="247" y="17" type="move"/>
      <point x="112" y="70"/>
      <point x="18" y="203"/>
      <point x="18" y="372" type="curve"/>
      <point x="18" y="594"/>
      <point x="153" y="760"/>
      <point x="385" y="760" type="curve"/>
      <point x="590" y="760"/>
      <point x="751" y="602"/>
      <point x="751" y="379" type="curve"/>
      <point x="751" y="158"/>
      <point x="617" y="-7"/>
      <point x="385" y="-7" type="curve"/>
      <point x="300" y="13" type="line"/>
      <point x="584" y="11" type="line"/>
      <point x="699" y="-36" type="line"/>
      <point x="699" y="-147" type="line"/>
      <point x="188" y="-148" type="line"/>
      <point x="187" y="-85" type="line"/>
      <point x="282" y="24" type="line"/>
      <point x="419" y="122"/>
      <point x="569" y="273"/>
      <point x="640" y="411" type="curve"/>
      <point x="640" y="327" type="line"/>
      <point x="566" y="491"/>
      <point x="479" y="583"/>
      <point x="340" y="686" type="curve"/>
      <point x="420" y="686" type="line"/>
      <point x="288" y="604"/>
      <point x="184" y="487"/>
      <point x="106" y="332" type="curve"/>
      <point x="106" y="423" type="line"/>
      <point x="153" y="322"/>
      <point x="252" y="208"/>
      <point x="347" y="124" type="curve"/>
      <point x="348" y="122" type="line"/>
      <point x="248" y="16" type="line"/>
    </contour>
  </outline>
</glyph>
<glyph name="T" format="2">
	<advance width="772"/>
	<unicode hex="0054"/>
	<outline>
		<contour>
			<point x="486" y="608" type="line"/>
			<point x="286" y="608" type="line"/>
			<point x="286" y="172" type="line"/>
			<point x="329" y="200" type="line"/>
			<point x="208" y="163" type="line"/>
			<point x="208" y="0" type="line"/>
			<point x="564" y="0" type="line"/>
			<point x="564" y="163" type="line"/>
			<point x="443" y="200" type="line"/>
			<point x="486" y="172" type="line"/>
		</contour>
		<contour>
			<point x="732" y="750" type="line"/>
			<point x="40" y="750" type="line"/>
			<point x="62" y="435" type="line"/>
			<point x="186" y="435" type="line"/>
			<point x="228" y="678" type="line"/>
			<point x="127" y="587" type="line"/>
			<point x="646" y="587" type="line"/>
			<point x="545" y="678" type="line"/>
			<point x="587" y="435" type="line"/>
			<point x="711" y="435" type="line"/>
		</contour>
	</outline>
</glyph>
<glyph name="U" format="2">
  <advance width="825"/>
  <unicode hex="0055"/>
  <outline>
    <contour>
      <point x="312.818" y="748.877" type="line"/>
      <point x="312.818" y="748.877"/>
      <point x="248.866" y="664.491"/>
      <point x="248.818" y="565.877" type="curve" smooth="yes"/>
      <point x="248.622" y="166.678" type="line"/>
      <point x="213.869" y="211.521" type="line"/>
      <point x="462.748" y="211.521"/>
      <point x="538.818" y="349.877"/>
      <point x="538.818" y="349.877" type="curve"/>
      <point x="538.818" y="153.877" type="line"/>
      <point x="538.818" y="155.83"/>
      <point x="426.539" y="153.877"/>
      <point x="426.539" y="153.877" type="curve"/>
      <point x="426.539" y="153.877"/>
      <point x="473.625" y="189.462"/>
      <point x="473.625" y="189.462" type="curve"/>
      <point x="473.625" y="189.462"/>
      <point x="501.818" y="-19.1229"/>
      <point x="276.818" y="-19.1229" type="curve" smooth="yes"/>
      <point x="68.8175" y="-19.1229"/>
      <point x="68.8175" y="158.877"/>
      <point x="68.8175" y="158.877" type="curve"/>
      <point x="68.8175" y="566.877" type="line" smooth="yes"/>
      <point x="68.8175" y="664.491"/>
      <point x="5.81749" y="748.877"/>
      <point x="5.81749" y="748.877" type="curve"/>
    </contour>
    <contour>
      <point x="813" y="0" type="line"/>
      <point x="455" y="0" type="line"/>
      <point x="488" y="51"/>
      <point x="520" y="118"/>
      <point x="520" y="215" type="curve" smooth="yes"/>
      <point x="520" y="627" type="line"/>
      <point x="564" y="575" type="line"/>
      <point x="472" y="575" type="line"/>
      <point x="423" y="750" type="line"/>
      <point x="768" y="750" type="line"/>
      <point x="716" y="679"/>
      <point x="700" y="634"/>
      <point x="700" y="528" type="curve" smooth="yes"/>
      <point x="700" y="143" type="line"/>
      <point x="651" y="187" type="line"/>
      <point x="758" y="187" type="line"/>
    </contour>
  </outline>
</glyph>
<glyph name="a" format="2">
	<advance width="692"/>
	<unicode hex="0061"/>
	<outline>
		<contour>
			<point x="391" y="307" type="curve" smooth="yes"/>
			<point x="391" y="238"/>
			<point x="390" y="2"/>
			<point x="390" y="2" type="curve"/>
			<point x="631" y="2" type="line"/>
			<point x="631" y="113" type="line"/>
			<point x="516" y="160" type="line"/>
			<point x="547" y="95" type="line"/>
			<point x="547" y="335" type="line" smooth="yes"/>
			<point x="547" y="500"/>
			<point x="459" y="543"/>
			<point x="350" y="543" type="curve" smooth="yes"/>
			<point x="261" y="543"/>
			<point x="161" y="529"/>
			<point x="68" y="501" type="curve"/>
			<point x="77" y="331" type="line"/>
			<point x="172" y="339" type="line"/>
			<point x="192" y="455" type="line"/>
			<point x="157" y="425" type="line"/>
			<point x="187" y="425"/>
			<point x="186" y="431"/>
			<point x="262" y="431" type="curve" smooth="yes"/>
			<point x="336" y="431"/>
			<point x="391" y="393"/>
		</contour>
		<contour>
			<point x="189" y="78" type="curve"/>
			<point x="189" y="65"/>
			<point x="223" y="49"/>
			<point x="252" y="49" type="curve"/>
			<point x="204" y="119"/>
			<point x="201" y="151"/>
			<point x="214" y="231" type="curve"/>
			<point x="214" y="231"/>
			<point x="173" y="211"/>
			<point x="173" y="211" type="curve"/>
			<point x="249" y="237"/>
			<point x="348" y="251"/>
			<point x="422" y="212" type="curve"/>
			<point x="450" y="174" type="line"/>
			<point x="450" y="266"/>
			<point x="383" y="329"/>
			<point x="277" y="329" type="curve" smooth="yes"/>
			<point x="144" y="329"/>
			<point x="52" y="248"/>
			<point x="52" y="157" type="curve" smooth="yes"/>
			<point x="52" y="63"/>
			<point x="101" y="-19"/>
			<point x="208" y="-19" type="curve" smooth="yes"/>
			<point x="291" y="-19"/>
			<point x="378" y="54"/>
			<point x="378" y="99" type="curve"/>
			<point x="329" y="77" type="line"/>
			<point x="432" y="77" type="line"/>
			<point x="432" y="77"/>
			<point x="426" y="190"/>
			<point x="426" y="190" type="curve"/>
			<point x="362" y="122"/>
			<point x="292" y="80"/>
		</contour>
	</outline>
</glyph>
<glyph name="b" format="2">
	<advance width="728"/>
	<unicode hex="0062"/>
	<guideline x="-34" y="-37" angle="0"/>
	<guideline x="-34" y="557" angle="0"/>
	<guideline x="-34" y="533" angle="0"/>
	<guideline x="-34" y="533" angle="0"/>
	<outline>
		<contour>
			<point x="165" y="108" type="curve"/>
			<point x="223" y="175" type="line"/>
			<point x="297" y="151"/>
			<point x="401" y="95"/>
			<point x="532" y="171" type="curve"/>
			<point x="464" y="109" type="line"/>
			<point x="464" y="406" type="line"/>
			<point x="526" y="352" type="line"/>
			<point x="431" y="354"/>
			<point x="329" y="338"/>
			<point x="276" y="271" type="curve"/>
			<point x="256" y="389" type="line"/>
			<point x="322" y="389" type="line"/>
			<point x="325" y="509"/>
			<point x="385" y="559"/>
			<point x="488" y="559" type="curve" smooth="yes"/>
			<point x="644" y="559"/>
			<point x="683" y="443"/>
			<point x="683" y="263" type="curve" smooth="yes"/>
			<point x="683" y="38"/>
			<point x="586" y="-18"/>
			<point x="430" y="-18" type="curve" smooth="yes"/>
			<point x="312" y="-18"/>
			<point x="211" y="46"/>
		</contour>
		<contour>
			<point x="280" y="80" type="line"/>
			<point x="100" y="-20" type="line"/>
			<point x="100" y="634" type="line"/>
			<point x="145" y="578" type="line"/>
			<point x="40" y="578" type="line"/>
			<point x="40" y="741" type="line"/>
			<point x="280" y="741" type="line"/>
		</contour>
	</outline>
</glyph>
<glyph name="e" format="2">
  <advance width="692"/>
  <unicode hex="0065"/>
  <outline>
    <contour>
      <point x="865" y="313" type="curve"/>
      <point x="793" y="350" type="line"/>
      <point x="836" y="236" type="line"/>
      <point x="959" y="230"/>
      <point x="1067" y="247"/>
      <point x="1156" y="286" type="curve"/>
      <point x="1156" y="481"/>
      <point x="1112" y="543"/>
      <point x="985" y="543" type="curve" smooth="yes"/>
      <point x="823" y="543"/>
      <point x="705.0" y="421.0"/>
      <point x="705" y="260" type="curve" smooth="yes"/>
      <point x="705" y="95"/>
      <point x="778" y="2"/>
      <point x="897" y="2" type="curve" smooth="yes"/>
      <point x="986" y="2"/>
      <point x="1067" y="24"/>
      <point x="1158" y="118" type="curve"/>
      <point x="1103" y="162" type="line"/>
      <point x="972" y="104"/>
      <point x="861" y="66"/>
      <point x="861" y="260" type="curve"/>
      <point x="859" y="405" type="line"/>
      <point x="899" y="436"/>
      <point x="944" y="456"/>
      <point x="1047" y="461" type="curve"/>
      <point x="1047" y="474"/>
      <point x="1011" y="490"/>
      <point x="982" y="490" type="curve"/>
      <point x="1012" y="420"/>
      <point x="1021" y="377"/>
      <point x="1009" y="298" type="curve"/>
      <point x="1009" y="298"/>
      <point x="1052" y="335"/>
      <point x="1052" y="335" type="curve"/>
      <point x="983" y="312"/>
      <point x="911" y="304"/>
    </contour>
    <contour>
      <point x="255" y="313" type="curve"/>
      <point x="183" y="350" type="line"/>
      <point x="226" y="236" type="line"/>
      <point x="349" y="230"/>
      <point x="457" y="247"/>
      <point x="546" y="286" type="curve"/>
      <point x="546" y="481"/>
      <point x="502" y="543"/>
      <point x="375" y="543" type="curve" smooth="yes"/>
      <point x="213" y="543"/>
      <point x="95.0" y="421.0"/>
      <point x="95" y="260" type="curve" smooth="yes"/>
      <point x="95" y="95"/>
      <point x="168" y="2"/>
      <point x="287" y="2" type="curve" smooth="yes"/>
      <point x="376" y="2"/>
      <point x="457" y="24"/>
      <point x="548" y="118" type="curve"/>
      <point x="493" y="162" type="line"/>
      <point x="428" y="122"/>
      <point x="327" y="106"/>
      <point x="220" y="121" type="curve"/>
      <point x="275" y="80" type="line"/>
      <point x="259" y="103"/>
      <point x="249" y="199"/>
      <point x="251" y="256" type="curve"/>
      <point x="249" y="405" type="line"/>
      <point x="289" y="436"/>
      <point x="334" y="456"/>
      <point x="437" y="461" type="curve"/>
      <point x="437" y="474"/>
      <point x="401" y="490"/>
      <point x="372" y="490" type="curve"/>
      <point x="402" y="420"/>
      <point x="411" y="377"/>
      <point x="399" y="298" type="curve"/>
      <point x="399" y="298"/>
      <point x="442" y="335"/>
      <point x="442" y="335" type="curve"/>
      <point x="373" y="312"/>
      <point x="301" y="304"/>
    </contour>
  </outline>
</glyph>
<glyph name="h" format="2">
	<advance width="798"/>
	<unicode hex="0068"/>
	<outline>
		<contour>
			<point x="69" y="0" type="line"/>
			<point x="309" y="0" type="line"/>
			<point x="309" y="741" type="line"/>
			<point x="69" y="741" type="line"/>
			<point x="69" y="548" type="line"/>
			<point x="189" y="548" type="line"/>
			<point x="129" y="608" type="line"/>
			<point x="129" y="93" type="line"/>
			<point x="186" y="242" type="line"/>
			<point x="69" y="193" type="line"/>
		</contour>
		<contour>
			<point x="438" y="0" type="line"/>
			<point x="729" y="0" type="line"/>
			<point x="729" y="193" type="line"/>
			<point x="648" y="232" type="line"/>
			<point x="679" y="93" type="line"/>
			<point x="679" y="333" type="line" smooth="yes"/>
			<point x="679" y="508"/>
			<point x="611" y="552"/>
			<point x="508" y="552" type="curve" smooth="yes"/>
			<point x="378" y="552"/>
			<point x="346" y="474"/>
			<point x="346" y="358" type="curve"/>
			<point x="376" y="408" type="line"/>
			<point x="275" y="408" type="line"/>
			<point x="275" y="260" type="line"/>
			<point x="331" y="330"/>
			<point x="423" y="342"/>
			<point x="531" y="342" type="curve"/>
			<point x="499" y="413" type="line"/>
			<point x="499" y="83" type="line"/>
			<point x="554" y="277" type="line"/>
		</contour>
	</outline>
</glyph>
<glyph name="i" format="2">
  <advance width="461"/>
  <unicode hex="0069"/>
  <outline>
    <contour>
      <point x="73" y="741" type="curve"/>
      <point x="102" y="808"/>
      <point x="140" y="855"/>
      <point x="206" y="893" type="curve"/>
      <point x="264" y="864"/>
      <point x="309" y="825"/>
      <point x="348" y="768" type="curve"/>
      <point x="313" y="700"/>
      <point x="269" y="654"/>
      <point x="208" y="621" type="curve"/>
      <point x="165" y="648"/>
      <point x="123" y="686"/>
    </contour>
    <contour>
      <point x="88" y="0" type="line"/>
      <point x="388" y="0" type="line"/>
      <point x="388" y="193" type="line"/>
      <point x="286" y="235" type="line"/>
      <point x="328" y="173" type="line"/>
      <point x="328" y="540" type="line"/>
      <point x="88" y="540" type="line"/>
      <point x="88" y="347" type="line"/>
      <point x="193" y="347" type="line"/>
      <point x="148" y="393" type="line"/>
      <point x="148" y="173" type="line"/>
      <point x="190" y="235" type="line"/>
      <point x="88" y="193" type="line"/>
    </contour>
  </outline>
</glyph>
<glyph name="l" format="2">
	<advance width="386"/>
	<unicode hex="006C"/>
	<guideline x="-47" y="96" angle="0"/>
	<guideline x="-47" y="145" angle="0"/>
	<outline>
		<contour>
			<point x="35" y="0" type="line"/>
			<point x="361" y="0" type="line"/>
			<point x="361" y="163" type="line"/>
			<point x="246" y="205" type="line"/>
			<point x="288" y="173" type="line"/>
			<point x="288" y="741" type="line"/>
			<point x="35" y="741" type="line"/>
			<point x="35" y="578" type="line"/>
			<point x="153" y="578" type="line"/>
			<point x="108" y="644" type="line"/>
			<point x="108" y="173" type="line"/>
			<point x="150" y="205" type="line"/>
			<point x="35" y="163" type="line"/>
		</contour>
	</outline>
</glyph>
<glyph name="m" format="2">
  <advance width="1065"/>
  <unicode hex="006D"/>
  <outline>
    <contour>
      <point x="25" y="527" type="line"/>
      <point x="134" y="527"/>
      <point x="327" y="527"/>
      <point x="327" y="527" type="curve"/>
      <point x="263" y="456"/>
      <point x="268" y="396"/>
      <point x="268" y="396" type="curve"/>
      <point x="312" y="396" type="line"/>
      <point x="312" y="396"/>
      <point x="306" y="551"/>
      <point x="461" y="551" type="curve" smooth="yes"/>
      <point x="614" y="551"/>
      <point x="605" y="396"/>
      <point x="605" y="396" type="curve"/>
      <point x="647" y="396" type="line"/>
      <point x="647" y="396"/>
      <point x="639" y="552"/>
      <point x="799" y="552" type="curve" smooth="yes"/>
      <point x="961" y="552"/>
      <point x="977" y="375"/>
      <point x="977" y="375" type="curve"/>
      <point x="977" y="140" type="line"/>
      <point x="1037" y="110" type="line"/>
      <point x="1037" y="0" type="line"/>
      <point x="738" y="0" type="line"/>
      <point x="807" y="110" type="line"/>
      <point x="807" y="196"/>
      <point x="807" y="332"/>
      <point x="807" y="332" type="curve"/>
      <point x="647" y="332"/>
      <point x="605" y="261"/>
      <point x="605" y="261" type="curve"/>
      <point x="605" y="0" type="line"/>
      <point x="392" y="0" type="line"/>
      <point x="473" y="110" type="line"/>
      <point x="473" y="333" type="line"/>
      <point x="316" y="333"/>
      <point x="269" y="260"/>
      <point x="269" y="260" type="curve"/>
      <point x="269" y="0"/>
      <point x="269" y="260"/>
      <point x="269" y="0" type="curve"/>
      <point x="28" y="0" type="line"/>
      <point x="28" y="110" type="line"/>
      <point x="99" y="140" type="line"/>
      <point x="99" y="375" type="line"/>
      <point x="26" y="414" type="line"/>
    </contour>
  </outline>
</glyph>
<glyph name="n" format="2">
  <advance width="771"/>
  <unicode hex="006E"/>
  <guideline x="452" y="0" angle="0" identifier="4UfUSX51hs"/>
  <guideline x="48" y="557" angle="0" identifier="uBtIZz63Xx"/>
  <guideline x="452" y="0" angle="0" identifier="bxJ418coIb"/>
  <guideline x="48" y="557" angle="0" identifier="cSD354c9YR"/>
  <outline>
    <contour>
      <point x="66" y="0" type="line"/>
      <point x="306" y="0" type="line"/>
      <point x="306" y="540" type="line"/>
      <point x="66" y="540" type="line"/>
      <point x="66" y="347" type="line"/>
      <point x="186" y="347" type="line"/>
      <point x="126" y="408" type="line"/>
      <point x="126" y="93" type="line"/>
      <point x="183" y="242" type="line"/>
      <point x="66" y="193" type="line"/>
    </contour>
    <contour>
      <point x="410" y="0" type="line"/>
      <point x="701" y="0" type="line"/>
      <point x="701" y="193" type="line"/>
      <point x="620" y="232" type="line"/>
      <point x="651" y="93" type="line"/>
      <point x="651" y="333" type="line" smooth="yes"/>
      <point x="651" y="515"/>
      <point x="583" y="559"/>
      <point x="495" y="559" type="curve" smooth="yes"/>
      <point x="380" y="559"/>
      <point x="348" y="481"/>
      <point x="348" y="358" type="curve"/>
      <point x="378" y="408" type="line"/>
      <point x="262" y="408" type="line"/>
      <point x="262" y="260" type="line"/>
      <point x="318" y="330"/>
      <point x="395" y="342"/>
      <point x="503" y="342" type="curve"/>
      <point x="471" y="413" type="line"/>
      <point x="471" y="83" type="line"/>
      <point x="526" y="277" type="line"/>
    </contour>
  </outline>
</glyph>
<glyph name="o" format="2">
  <advance width="702"/>
  <unicode hex="006F"/>
  <guideline x="34" y="542" angle="0" identifier="C9ZTogcyuM"/>
  <outline>
    <contour>
      <point x="133" y="-18"/>
      <point x="50" y="64"/>
      <point x="50" y="270" type="curve" smooth="yes"/>
      <point x="50" y="471"/>
      <point x="133" y="559"/>
      <point x="350" y="559" type="curve" smooth="yes"/>
      <point x="567" y="559"/>
      <point x="652" y="474"/>
      <point x="652" y="270" type="curve" smooth="yes"/>
      <point x="652" y="66"/>
      <point x="572" y="-18"/>
      <point x="350" y="-18" type="curve" smooth="yes"/>
    </contour>
    <contour>
      <point x="179" y="163" type="line"/>
      <point x="291" y="102"/>
      <point x="411" y="133"/>
      <point x="521" y="195" type="curve"/>
      <point x="433" y="89" type="line"/>
      <point x="433" y="458" type="line"/>
      <point x="522" y="378" type="line"/>
      <point x="414" y="440"/>
      <point x="289" y="407"/>
      <point x="181" y="346" type="curve"/>
      <point x="270" y="457" type="line"/>
      <point x="270" y="87" type="line"/>
    </contour>
  </outline>
</glyph>
<glyph name="q" format="2">
	<advance width="709"/>
	<unicode hex="0071"/>
	<outline>
		<contour>
			<point x="391" y="-200" type="line"/>
			<point x="391" y="-47" type="line"/>
			<point x="493" y="-5" type="line"/>
			<point x="451" y="-128" type="line"/>
			<point x="451" y="479" type="line"/>
			<point x="631" y="559" type="line"/>
			<point x="631" y="-103" type="line"/>
			<point x="586" y="-37" type="line"/>
			<point x="691" y="-37" type="line"/>
			<point x="691" y="-200" type="line"/>
		</contour>
		<contour>
			<point x="566" y="433" type="curve"/>
			<point x="508" y="366" type="line"/>
			<point x="434" y="390"/>
			<point x="330" y="446"/>
			<point x="199" y="370" type="curve"/>
			<point x="267" y="432" type="line"/>
			<point x="267" y="135" type="line"/>
			<point x="205" y="189" type="line"/>
			<point x="300" y="187"/>
			<point x="402" y="203"/>
			<point x="455" y="270" type="curve"/>
			<point x="475" y="152" type="line"/>
			<point x="409" y="152" type="line"/>
			<point x="406" y="32"/>
			<point x="346" y="-18"/>
			<point x="243" y="-18" type="curve" smooth="yes"/>
			<point x="87" y="-18"/>
			<point x="48" y="98"/>
			<point x="48" y="278" type="curve" smooth="yes"/>
			<point x="48" y="503"/>
			<point x="149" y="559"/>
			<point x="301" y="559" type="curve" smooth="yes"/>
			<point x="419" y="559"/>
			<point x="520" y="495"/>
		</contour>
	</outline>
</glyph>
<glyph name="r" format="2">
	<advance width="630"/>
	<unicode hex="0072"/>
	<outline>
		<contour>
			<point x="31.5372" y="540.198" type="curve"/>
			<point x="287.537" y="540.198" type="line"/>
			<point x="287.537" y="418.198" type="line"/>
			<point x="362.777" y="418.198" type="line"/>
			<point x="327.537" y="391.864" type="line"/>
			<point x="327.537" y="391.864"/>
			<point x="312.844" y="564.999"/>
			<point x="480.537" y="564.999" type="curve" smooth="yes"/>
			<point x="577.438" y="564.999"/>
			<point x="638.562" y="469.731"/>
			<point x="638.562" y="469.731" type="curve"/>
			<point x="638.562" y="469.731"/>
			<point x="508.307" y="355.864"/>
			<point x="508.307" y="355.864" type="curve"/>
			<point x="340.672" y="401.679"/>
			<point x="257.396" y="261.851"/>
			<point x="257.396" y="261.851" type="curve"/>
			<point x="257.396" y="261.851"/>
			<point x="285.537" y="330.27"/>
			<point x="285.537" y="330.27" type="curve"/>
			<point x="287.356" y="331.101"/>
			<point x="285.537" y="139.198"/>
			<point x="285.537" y="139.198" type="curve"/>
			<point x="285.537" y="57.3523"/>
			<point x="348.537" y="-0.80181"/>
			<point x="348.537" y="-0.80181" type="curve"/>
			<point x="32.5372" y="-0.80181" type="line"/>
			<point x="32.5372" y="108.198" type="line"/>
			<point x="138.405" y="162.075" type="line"/>
			<point x="138.405" y="162.075"/>
			<point x="105.537" y="96.1197"/>
			<point x="105.537" y="96.1197" type="curve"/>
			<point x="105.537" y="96.1197"/>
			<point x="105.537" y="382.198"/>
			<point x="105.537" y="382.198" type="curve"/>
			<point x="105.537" y="458.776"/>
			<point x="31.5372" y="540.198"/>
		</contour>
	</outline>
</glyph>
<glyph name="u" format="2">
  <advance width="694"/>
  <unicode hex="0075"/>
  <guideline y="557" identifier="9p1MOk7uai"/>
  <guideline y="-37" identifier="h5AulJOXnB"/>
  <guideline y="95" identifier="Kf3MdMnf3l"/>
  <outline>
    <contour>
      <point x="247" y="-15" type="curve" smooth="yes"/>
      <point x="345" y="-15"/>
      <point x="390" y="36"/>
      <point x="390" y="153" type="curve"/>
      <point x="360" y="123" type="line"/>
      <point x="463" y="123" type="line"/>
      <point x="433" y="153" type="line"/>
      <point x="433" y="1" type="line"/>
      <point x="660" y="1" type="line"/>
      <point x="660" y="135" type="line"/>
      <point x="660" y="135"/>
      <point x="525" y="165"/>
      <point x="525" y="165" type="curve" smooth="yes"/>
      <point x="525" y="165"/>
      <point x="583" y="76"/>
      <point x="583" y="76" type="curve"/>
      <point x="583" y="370" type="line"/>
      <point x="583" y="452"/>
      <point x="616" y="502"/>
      <point x="651" y="540" type="curve"/>
      <point x="367" y="540" type="line"/>
      <point x="402" y="502"/>
      <point x="433" y="452"/>
      <point x="433" y="370" type="curve" smooth="yes"/>
      <point x="433" y="367" type="line"/>
      <point x="433" y="201" type="line"/>
      <point x="457" y="262" type="line"/>
      <point x="401" y="192"/>
      <point x="301" y="175"/>
      <point x="206" y="183" type="curve"/>
      <point x="260" y="65" type="line"/>
      <point x="241" y="155"/>
      <point x="236" y="245"/>
      <point x="243" y="353" type="curve"/>
      <point x="245" y="409"/>
      <point x="258" y="473"/>
      <point x="295" y="540" type="curve"/>
      <point x="2" y="540" type="line"/>
      <point x="2" y="391" type="line"/>
      <point x="133" y="340" type="line"/>
      <point x="95" y="448" type="line"/>
      <point x="78" y="366"/>
      <point x="69" y="293"/>
      <point x="69" y="231" type="curve" smooth="yes"/>
      <point x="69" y="76"/>
      <point x="137" y="-15"/>
    </contour>
  </outline>
</glyph>
<glyph name="Ntilde" format="2">
	<advance width="760"/>
	<unicode hex="00D1"/>
	<outline>
		<contour>
			<point x="110.88" y="812.498" type="curve"/>
			<point x="110.88" y="812.498"/>
			<point x="462.705" y="812.498"/>
			<point x="462.705" y="812.498" type="curve"/>
			<point x="627.51" y="812.498"/>
			<point x="666.88" y="879.498"/>
			<point x="666.88" y="879.498" type="curve"/>
			<point x="666.88" y="879.498"/>
			<point x="666.88" y="998.498"/>
			<point x="666.88" y="998.498" type="curve"/>
			<point x="666.88" y="998.498"/>
			<point x="593.871" y="934.498"/>
			<point x="493.88" y="934.498" type="curve"/>
			<point x="493.88" y="934.498"/>
			<point x="247.88" y="934.498"/>
			<point x="247.88" y="934.498" type="curve"/>
			<point x="130.388" y="934.498"/>
			<point x="110.88" y="812.498"/>
		</contour>
		<component base="N" xOffset="-20"/>
	</outline>
</glyph>
<glyph name="ntilde" format="2">
	<advance width="766"/>
	<unicode hex="00F1"/>
	<outline>
		<contour>
			<point x="53.7506" y="540.386" type="line"/>
			<point x="166.936" y="540.386"/>
			<point x="373.805" y="542.133"/>
			<point x="371.968" y="540.386" type="curve"/>
			<point x="298.085" y="470.121"/>
			<point x="312.066" y="268.023"/>
			<point x="312.066" y="268.023" type="curve"/>
			<point x="311.868" y="270.243"/>
			<point x="310.694" y="0.0987"/>
			<point x="312.066" y="0.0987" type="curve"/>
			<point x="57.8818" y="0.0987" type="line"/>
			<point x="57.8818" y="116.806" type="line"/>
			<point x="160.359" y="116.806" type="line"/>
			<point x="132.244" y="85.2017" type="line"/>
			<point x="132.244" y="430.504" type="line"/>
			<point x="160.359" y="374.439" type="line"/>
			<point x="53.7505" y="425.614" type="line"/>
		</contour>
		<contour>
			<point x="462.745" y="116.806" type="line"/>
			<point x="550.467" y="172.646" type="line"/>
			<point x="550.467" y="172.646"/>
			<point x="522.383" y="117.237"/>
			<point x="522.383" y="117.237" type="curve"/>
			<point x="522.383" y="117.237"/>
			<point x="522.383" y="380.079"/>
			<point x="522.383" y="380.079" type="curve"/>
			<point x="550.425" y="334.174" type="line"/>
			<point x="322.846" y="334.174"/>
			<point x="277.567" y="203.056"/>
			<point x="277.567" y="203.056" type="curve"/>
			<point x="277.567" y="203.056"/>
			<point x="277.609" y="320.367"/>
			<point x="277.609" y="386.828" type="curve"/>
			<point x="277.609" y="386.828"/>
			<point x="390.153" y="386.771"/>
			<point x="390.153" y="386.771" type="curve"/>
			<point x="390.153" y="386.771"/>
			<point x="354.278" y="357.623"/>
			<point x="354.278" y="357.623" type="curve"/>
			<point x="355.322" y="357.623"/>
			<point x="354.704" y="558.274"/>
			<point x="535.318" y="558.274" type="curve" smooth="yes"/>
			<point x="699.451" y="558.274"/>
			<point x="704.325" y="413.075"/>
			<point x="701.91" y="413.075" type="curve"/>
			<point x="701.91" y="59.3699" type="line"/>
			<point x="701.91" y="59.3699"/>
			<point x="677.153" y="154.709"/>
			<point x="677.153" y="154.709" type="curve"/>
			<point x="775.027" y="0.5597" type="line"/>
			<point x="462.746" y="1.1317" type="line"/>
		</contour>
		<contour>
			<point x="139.213" y="616.636" type="curve"/>
			<point x="139.213" y="616.636"/>
			<point x="479.006" y="616.636"/>
			<point x="479.006" y="616.636" type="curve"/>
			<point x="564.286" y="616.636"/>
			<point x="614.064" y="675.505"/>
			<point x="612.237" y="675.505" type="curve"/>
			<point x="612.237" y="675.505"/>
			<point x="612.237" y="786.015"/>
			<point x="612.237" y="786.015" type="curve"/>
			<point x="612.906" y="786.015"/>
			<point x="564.286" y="725.08"/>
			<point x="484.17" y="725.08" type="curve" smooth="yes"/>
			<point x="480.035" y="725.08"/>
			<point x="259.018" y="724.047"/>
			<point x="259.018" y="724.047" type="curve"/>
			<point x="181.027" y="724.047"/>
			<point x="139.213" y="616.636"/>
		</contour>
	</outline>
</glyph>
<glyph name="O.001" format="2">
	<advance width="833"/>
	<outline>
		<contour>
			<point x="415" y="-19" type="curve" smooth="yes"/>
			<point x="138" y="-19"/>
			<point x="55" y="63"/>
			<point x="55" y="374" type="curve" smooth="yes"/>
			<point x="55" y="680"/>
			<point x="138" y="768"/>
			<point x="415" y="768" type="curve" smooth="yes"/>
			<point x="693" y="768"/>
			<point x="778" y="683"/>
			<point x="778" y="374" type="curve" smooth="yes"/>
			<point x="778" y="65"/>
			<point x="698" y="-19"/>
		</contour>
		<contour>
			<point x="283" y="196"/>
			<point x="308" y="152"/>
			<point x="416" y="152" type="curve" smooth="yes"/>
			<point x="526" y="152"/>
			<point x="551" y="196"/>
			<point x="551" y="374" type="curve" smooth="yes"/>
			<point x="551" y="552"/>
			<point x="526" y="597"/>
			<point x="416" y="597" type="curve" smooth="yes"/>
			<point x="308" y="597"/>
			<point x="283" y="552"/>
			<point x="283" y="374" type="curve" smooth="yes"/>
		</contour>
	</outline>
</glyph>
<glyph name="O.alt" format="2">
	<advance width="863"/>
	<outline>
		<contour>
			<point x="55" y="63"/>
			<point x="55" y="374" type="curve" smooth="yes"/>
			<point x="55" y="680"/>
			<point x="138" y="768"/>
			<point x="430" y="768" type="curve" smooth="yes"/>
			<point x="723" y="768"/>
			<point x="808" y="683"/>
			<point x="808" y="374" type="curve" smooth="yes"/>
			<point x="808" y="65"/>
			<point x="728" y="-19"/>
			<point x="430" y="-19" type="curve" smooth="yes"/>
			<point x="138" y="-19"/>
		</contour>
		<contour>
			<point x="194" y="182" type="line"/>
			<point x="306" y="121"/>
			<point x="556" y="152"/>
			<point x="666" y="214" type="curve"/>
			<point x="553" y="88" type="line"/>
			<point x="553" y="667" type="line"/>
			<point x="667" y="567" type="line"/>
			<point x="559" y="629"/>
			<point x="304" y="596"/>
			<point x="196" y="535" type="curve"/>
			<point x="310" y="666" type="line"/>
			<point x="310" y="86" type="line"/>
		</contour>
	</outline>
</glyph>
<glyph name="Q." format="2">
  <advance width="770"/>
  <outline>
    <contour>
      <point x="242" y="20" type="line"/>
      <point x="107" y="73"/>
      <point x="16" y="203"/>
      <point x="16" y="372" type="curve"/>
      <point x="16" y="594"/>
      <point x="151" y="760"/>
      <point x="383" y="760" type="curve"/>
      <point x="588" y="760"/>
      <point x="749" y="602"/>
      <point x="749" y="379" type="curve"/>
      <point x="749" y="235"/>
      <point x="692" y="114"/>
      <point x="587" y="48" type="curve"/>
      <point x="491" y="48" type="line"/>
      <point x="521" y="78" type="line"/>
      <point x="521" y="-19" type="line"/>
      <point x="491" y="11" type="line"/>
      <point x="582" y="11" type="line"/>
      <point x="697" y="-36" type="line"/>
      <point x="697" y="-147" type="line"/>
      <point x="186" y="-148" type="line"/>
      <point x="185" y="-85" type="line"/>
      <point x="280" y="24" type="line"/>
      <point x="417" y="122"/>
      <point x="567" y="273"/>
      <point x="638" y="411" type="curve"/>
      <point x="638" y="327" type="line"/>
      <point x="564" y="491"/>
      <point x="477" y="583"/>
      <point x="338" y="686" type="curve"/>
      <point x="418" y="686" type="line"/>
      <point x="286" y="604"/>
      <point x="182" y="487"/>
      <point x="104" y="332" type="curve"/>
      <point x="104" y="423" type="line"/>
      <point x="151" y="322"/>
      <point x="247" y="211"/>
      <point x="342" y="127" type="curve"/>
      <point x="346" y="122" type="line"/>
    </contour>
  </outline>
</glyph>
